<svg xmlns="http://www.w3.org/2000/svg" xmlns:svg="http://www.w3.org/2000/svg" xmlns:xlink="http://www.w3.org/1999/xlink" version="1.0" height="1899.009768749379pt" width="1329.9999999999995pt" viewBox="375 317 1337.9999999999995 1905.009768749379" ><defs><style type="text/css">
            @font-face {
                font-family: 'noto_regular';
                src: url('https://app.creately.com/diagram/assets/fonts/noto/noto-regular.woff') format('woff'),
                     url('https://app.creately.com/diagram/assets/fonts/noto/noto-regular.woff2') format('woff2');
                font-weight: normal;
                font-style: normal;
            }
        p {
            margin: 0;
        }
        </style></defs><defs><style>
            span{ display: inline-block; }
        </style></defs><g id="v616bE1z3Ri"><g transform="translate(899.9999999999999 320)"><path d="M 20,40 L 20,40 L 20,40 A 20 20 0 0 1 0 20.000000000000004 L 0,20 L 0,20.000000000000004 A 20 20 0 0 1 20 0 L 80,0 L 80,0 L 80,0 A 20 20 0 0 1 100 20 L 100,20 L 100,20 A 20 20 0 0 1 80 40 L 20,40 Z" fill="rgb(255,255,255)" stroke="#f77474" stroke-width="2" stroke-linecap="round" stroke-linejoin="round"/></g><g transform="translate(935.0299999999999, 331) rotate(0, 14.97, 9)" width="29.94" height="18"><text text-decoration="none" x="1.4700000000000006" fill="#656565" font-size="10pt" font-family="noto_regular"  y="15">Start</text><text text-decoration="none" x="28.47" fill="#4b4b4b" font-size="10pt" font-family="noto_regular"  y="15"></text></g></g><g id="YKmQ6mYbS4g"><g transform="translate(889.9999999999999 430.00000000000006)"><rect x="0" y="0" width="120" height="80" fill="rgb(255,255,255)" stroke="#24afaf" stroke-width="2" stroke-linecap="round" stroke-linejoin="round"/></g><g transform="translate(911.9299999999998, 442.99500000000006) rotate(0, 38.07, 27.005)" width="76.14" height="54.01"><text text-decoration="none" x="19.57" fill="#656565" font-size="10pt" font-family="noto_regular"  y="12">Create&#160;</text><text text-decoration="none" x="4.07" fill="#656565" font-size="10pt" font-family="noto_regular"  y="28">Background&#160;</text><text text-decoration="none" x="27.57" fill="#656565" font-size="10pt" font-family="noto_regular"  y="47">Cell</text><text text-decoration="none" x="48.57" fill="#4b4b4b" font-size="10pt" font-family="noto_regular"  y="47"></text></g></g><g id="fY5vnudoDwF"><g transform="translate(430 610.0000000000002)"><rect x="0" y="0" width="120" height="60" fill="rgb(255,255,255)" stroke="#24afaf" stroke-width="2" stroke-linecap="round" stroke-linejoin="round"/></g><g transform="translate(443.165, 631.0000000000002) rotate(0, 46.835, 9)" width="93.67" height="18"><text text-decoration="none" x="3.835000000000001" fill="#656565" font-size="10pt" font-family="noto_regular"  y="15">Create&#160;</text><text text-decoration="none" x="43.835" fill="#656565" font-size="10pt" font-family="noto_regular"  y="15">Z&#160;</text><text text-decoration="none" x="54.835" fill="#656565" font-size="10pt" font-family="noto_regular"  y="15">shape</text><text text-decoration="none" x="89.83500000000001" fill="#4b4b4b" font-size="10pt" font-family="noto_regular"  y="15"></text></g></g><g id="5wXwdnzqZkI"><g transform="translate(580.0000000000001 610.0000000000002)"><rect x="0" y="0" width="120" height="60" fill="rgb(255,255,255)" stroke="#24afaf" stroke-width="2" stroke-linecap="round" stroke-linejoin="round"/></g><g transform="translate(591.7700000000001, 631.0000000000002) rotate(0, 48.23, 9)" width="96.46" height="18"><text text-decoration="none" x="4.729999999999997" fill="#656565" font-size="10pt" font-family="noto_regular"  y="15">Create&#160;</text><text text-decoration="none" x="44.73" fill="#656565" font-size="10pt" font-family="noto_regular"  y="15">O&#160;</text><text text-decoration="none" x="56.73" fill="#656565" font-size="10pt" font-family="noto_regular"  y="15">shape</text><text text-decoration="none" x="91.72999999999999" fill="#4b4b4b" font-size="10pt" font-family="noto_regular"  y="15"></text></g></g><g id="xmD5rEqp1DF"><g transform="translate(740 610.0000000000002)"><rect x="0" y="0" width="120" height="60" fill="rgb(255,255,255)" stroke="#24afaf" stroke-width="2" stroke-linecap="round" stroke-linejoin="round"/></g><g transform="translate(754.715, 631.0000000000002) rotate(0, 45.285, 9)" width="90.57" height="18"><text text-decoration="none" x="4.284999999999997" fill="#656565" font-size="10pt" font-family="noto_regular"  y="15">Create&#160;</text><text text-decoration="none" x="44.285" fill="#656565" font-size="10pt" font-family="noto_regular"  y="15">I&#160;</text><text text-decoration="none" x="51.285" fill="#656565" font-size="10pt" font-family="noto_regular"  y="15">shape</text><text text-decoration="none" x="86.285" fill="#4b4b4b" font-size="10pt" font-family="noto_regular"  y="15"></text></g></g><g id="0HaSAi5HBrg"><g transform="translate(889.9999999999999 610.0000000000002)"><rect x="0" y="0" width="120" height="60" fill="rgb(255,255,255)" stroke="#24afaf" stroke-width="2" stroke-linecap="round" stroke-linejoin="round"/></g><g transform="translate(903.2699999999999, 631.0000000000002) rotate(0, 46.73, 9)" width="93.46" height="18"><text text-decoration="none" x="3.729999999999997" fill="#656565" font-size="10pt" font-family="noto_regular"  y="15">Create&#160;</text><text text-decoration="none" x="43.73" fill="#656565" font-size="10pt" font-family="noto_regular"  y="15">T&#160;</text><text text-decoration="none" x="54.73" fill="#656565" font-size="10pt" font-family="noto_regular"  y="15">shape</text><text text-decoration="none" x="89.72999999999999" fill="#4b4b4b" font-size="10pt" font-family="noto_regular"  y="15"></text></g></g><g id="98MewdtzZP2"><g transform="translate(1040 610.0000000000002)"><rect x="0" y="0" width="120" height="60" fill="rgb(255,255,255)" stroke="#24afaf" stroke-width="2" stroke-linecap="round" stroke-linejoin="round"/></g><g transform="translate(1053.48, 631.0000000000002) rotate(0, 46.52, 9)" width="93.04" height="18"><text text-decoration="none" x="4.020000000000003" fill="#656565" font-size="10pt" font-family="noto_regular"  y="15">Create&#160;</text><text text-decoration="none" x="44.02" fill="#656565" font-size="10pt" font-family="noto_regular"  y="15">L&#160;</text><text text-decoration="none" x="54.02" fill="#656565" font-size="10pt" font-family="noto_regular"  y="15">shape</text><text text-decoration="none" x="89.02000000000001" fill="#4b4b4b" font-size="10pt" font-family="noto_regular"  y="15"></text></g></g><g id="EYQrtFDCkKR"><g transform="translate(1190 610.0000000000002)"><rect x="0" y="0" width="120" height="60" fill="rgb(255,255,255)" stroke="#24afaf" stroke-width="2" stroke-linecap="round" stroke-linejoin="round"/></g><g transform="translate(1203.165, 621.9950000000002) rotate(0, 46.835, 18.005)" width="93.67" height="36.01"><text text-decoration="none" x="3.835000000000001" fill="#656565" font-size="10pt" font-family="noto_regular"  y="12">Create&#160;</text><text text-decoration="none" x="43.835" fill="#656565" font-size="10pt" font-family="noto_regular"  y="12">Z&#160;</text><text text-decoration="none" x="54.835" fill="#656565" font-size="10pt" font-family="noto_regular"  y="12">shape&#160;</text><text text-decoration="none" x="6.335000000000001" fill="#656565" font-size="10pt" font-family="noto_regular"  y="31">(upside&#160;</text><text text-decoration="none" x="51.335" fill="#656565" font-size="10pt" font-family="noto_regular"  y="31">down)</text><text text-decoration="none" x="87.33500000000001" fill="#4b4b4b" font-size="10pt" font-family="noto_regular"  y="31"></text></g></g><g id="rhe4zkp3dbB"><g transform="translate(1340.0000000000005 610.0000000000002)"><rect x="0" y="0" width="120" height="60" fill="rgb(255,255,255)" stroke="#24afaf" stroke-width="2" stroke-linecap="round" stroke-linejoin="round"/></g><g transform="translate(1353.4800000000005, 621.9950000000002) rotate(0, 46.52, 18.005)" width="93.04" height="36.01"><text text-decoration="none" x="4.020000000000003" fill="#656565" font-size="10pt" font-family="noto_regular"  y="12">Create&#160;</text><text text-decoration="none" x="44.02" fill="#656565" font-size="10pt" font-family="noto_regular"  y="12">L&#160;</text><text text-decoration="none" x="54.02" fill="#656565" font-size="10pt" font-family="noto_regular"  y="12">shape&#160;</text><text text-decoration="none" x="6.020000000000003" fill="#656565" font-size="10pt" font-family="noto_regular"  y="31">(upside&#160;</text><text text-decoration="none" x="51.02" fill="#656565" font-size="10pt" font-family="noto_regular"  y="31">down)</text><text text-decoration="none" x="87.02000000000001" fill="#4b4b4b" font-size="10pt" font-family="noto_regular"  y="31"></text></g></g><g id="sr9ZB5hgeqm"><g transform="translate(889.9999999999999 750.0000000000002)"><rect x="0" y="0" width="120" height="80" fill="rgb(255,255,255)" stroke="#24afaf" stroke-width="2" stroke-linecap="round" stroke-linejoin="round"/></g><g transform="translate(902.0899999999999, 762.9950000000002) rotate(0, 47.91, 27.005)" width="95.82" height="54.01"><text text-decoration="none" x="19.909999999999997" fill="#656565" font-size="10pt" font-family="noto_regular"  y="12">Press&#160;</text><text text-decoration="none" x="55.91" fill="#656565" font-size="10pt" font-family="noto_regular"  y="12">key&#160;</text><text text-decoration="none" x="7.909999999999997" fill="#656565" font-size="10pt" font-family="noto_regular"  y="28">&#x22;enter&#x22;&#160;</text><text text-decoration="none" x="47.91" fill="#656565" font-size="10pt" font-family="noto_regular"  y="28">to&#160;</text><text text-decoration="none" x="61.91" fill="#656565" font-size="10pt" font-family="noto_regular"  y="28">start&#160;</text><text text-decoration="none" x="21.409999999999997" fill="#656565" font-size="10pt" font-family="noto_regular"  y="47">the&#160;</text><text text-decoration="none" x="42.41" fill="#656565" font-size="10pt" font-family="noto_regular"  y="47">game</text><text text-decoration="none" x="74.41" fill="#4b4b4b" font-size="10pt" font-family="noto_regular"  y="47"></text></g></g><g id="y732qgkR5NN"><g transform="translate(860.0000000000001 899.9999999999998)"><path d="M 89.99999999999983,0 L 0,59.999999999999886 L 89.99999999999983,119.99999999999977 L 179.99999999999966,59.999999999999886 L 89.99999999999983,0 Z" fill="rgb(255,255,255)" stroke="#BB881A" stroke-width="2" stroke-linecap="round" stroke-linejoin="round"/></g><g transform="translate(899.295, 941.9949999999997) rotate(0, 50.705, 18.005)" width="101.41" height="36.01"><text text-decoration="none" x="4.704999999999998" fill="#656565" font-size="10pt" font-family="noto_regular"  y="12">Select&#160;</text><text text-decoration="none" x="43.705" fill="#656565" font-size="10pt" font-family="noto_regular"  y="12">a&#160;</text><text text-decoration="none" x="53.705" fill="#656565" font-size="10pt" font-family="noto_regular"  y="12">random</text><text text-decoration="none" x="96.705" fill="#656565" font-size="10pt" font-family="noto_regular"  y="12"></text><text text-decoration="none" x="33.205" fill="#656565" font-size="10pt" font-family="noto_regular"  y="31">shape</text><text text-decoration="none" x="68.205" fill="#4b4b4b" font-size="10pt" font-family="noto_regular"  y="31"></text></g></g><g id="D2fvjdaKwqZ"><g transform="translate(890.0000000000001 1090.0000007999433)"><rect x="0" y="0" width="120" height="60" fill="rgb(255,255,255)" stroke="#24afaf" stroke-width="2" stroke-linecap="round" stroke-linejoin="round"/></g><g transform="translate(909.4200000000001, 1101.9950007999432) rotate(0, 40.58, 18.005)" width="81.16" height="36.01"><text text-decoration="none" x="8.079999999999998" fill="#656565" font-size="10pt" font-family="noto_regular"  y="12">Move&#160;</text><text text-decoration="none" x="42.08" fill="#656565" font-size="10pt" font-family="noto_regular"  y="12">down&#160;</text><text text-decoration="none" x="4.579999999999998" fill="#656565" font-size="10pt" font-family="noto_regular"  y="31">(using&#160;</text><text text-decoration="none" x="42.58" fill="#656565" font-size="10pt" font-family="noto_regular"  y="31">timer)</text><text text-decoration="none" x="76.58" fill="#4b4b4b" font-size="10pt" font-family="noto_regular"  y="31"></text></g></g><g id="fNcdlzVOJnV"><g transform="translate(1360 1090)"><rect x="0" y="0" width="120" height="60" fill="rgb(255,255,255)" stroke="#24afaf" stroke-width="2" stroke-linecap="round" stroke-linejoin="round"/></g><g transform="translate(1377.455, 1101.995) rotate(0, 42.545, 18.005)" width="85.09" height="36.01"><text text-decoration="none" x="4.545000000000002" fill="#656565" font-size="10pt" font-family="noto_regular"  y="12">End&#160;</text><text text-decoration="none" x="28.545" fill="#656565" font-size="10pt" font-family="noto_regular"  y="12">and&#160;</text><text text-decoration="none" x="52.545" fill="#656565" font-size="10pt" font-family="noto_regular"  y="12">clear&#160;</text><text text-decoration="none" x="12.545000000000002" fill="#656565" font-size="10pt" font-family="noto_regular"  y="31">the&#160;</text><text text-decoration="none" x="33.545" fill="#656565" font-size="10pt" font-family="noto_regular"  y="31">bitmap</text><text text-decoration="none" x="72.545" fill="#4b4b4b" font-size="10pt" font-family="noto_regular"  y="31"></text></g></g><g id="gUipUYTpJIC"><g transform="translate(1089.9999999999998 1060.0000007999433)"><path d="M 89.99999999999983,0 L 0,59.999999999999886 L 89.99999999999983,119.99999999999977 L 179.99999999999966,59.999999999999886 L 89.99999999999983,0 Z" fill="rgb(255,255,255)" stroke="#BB881A" stroke-width="2" stroke-linecap="round" stroke-linejoin="round"/></g><g transform="translate(1113.6699999999996, 1092.9950007999432) rotate(0, 66.33, 27.005)" width="132.66" height="54.01"><text text-decoration="none" x="27.33" fill="#656565" font-size="10pt" font-family="noto_regular"  y="12">Did&#160;</text><text text-decoration="none" x="49.33" fill="#656565" font-size="10pt" font-family="noto_regular"  y="12">the&#160;</text><text text-decoration="none" x="70.33" fill="#656565" font-size="10pt" font-family="noto_regular"  y="12">shape</text><text text-decoration="none" x="105.33" fill="#656565" font-size="10pt" font-family="noto_regular"  y="12"></text><text text-decoration="none" x="8.329999999999998" fill="#656565" font-size="10pt" font-family="noto_regular"  y="28">hit&#160;</text><text text-decoration="none" x="25.33" fill="#656565" font-size="10pt" font-family="noto_regular"  y="28">and&#160;</text><text text-decoration="none" x="49.33" fill="#656565" font-size="10pt" font-family="noto_regular"  y="28">the&#160;</text><text text-decoration="none" x="70.33" fill="#656565" font-size="10pt" font-family="noto_regular"  y="28">top&#160;</text><text text-decoration="none" x="91.33" fill="#656565" font-size="10pt" font-family="noto_regular"  y="28">of&#160;</text><text text-decoration="none" x="106.33" fill="#656565" font-size="10pt" font-family="noto_regular"  y="28">the&#160;</text><text text-decoration="none" x="43.83" fill="#656565" font-size="10pt" font-family="noto_regular"  y="47">bitmap?</text><text text-decoration="none" x="88.83" fill="#4b4b4b" font-size="10pt" font-family="noto_regular"  y="47"></text></g></g><g id="Vtc1BY58QQl"><g transform="translate(1530 1060.0000007999433)"><path d="M 89.99999999999983,0 L 0,59.999999999999886 L 89.99999999999983,119.99999999999977 L 179.99999999999966,59.999999999999886 L 89.99999999999983,0 Z" fill="rgb(255,255,255)" stroke="#BB881A" stroke-width="2" stroke-linecap="round" stroke-linejoin="round"/></g><g transform="translate(1577.8099999999997, 1101.9950007999432) rotate(0, 42.19, 18.005)" width="84.38" height="36.01"><text text-decoration="none" x="3.1899999999999977" fill="#656565" font-size="10pt" font-family="noto_regular"  y="12">Ask&#160;</text><text text-decoration="none" x="28.189999999999998" fill="#656565" font-size="10pt" font-family="noto_regular"  y="12">if&#160;</text><text text-decoration="none" x="39.19" fill="#656565" font-size="10pt" font-family="noto_regular"  y="12">want&#160;</text><text text-decoration="none" x="70.19" fill="#656565" font-size="10pt" font-family="noto_regular"  y="12">to</text><text text-decoration="none" x="81.19" fill="#656565" font-size="10pt" font-family="noto_regular"  y="12"></text><text text-decoration="none" x="9.189999999999998" fill="#656565" font-size="10pt" font-family="noto_regular"  y="31">play&#160;</text><text text-decoration="none" x="38.19" fill="#656565" font-size="10pt" font-family="noto_regular"  y="31">again?</text><text text-decoration="none" x="75.19" fill="#4b4b4b" font-size="10pt" font-family="noto_regular"  y="31"></text></g></g><g id="YEf3Hyq9ebx"><g transform="translate(1569.9999974244463 1260)"><path d="M 20,40 L 20,40 L 20,40 A 20 20 0 0 1 0 20.000000000000004 L 0,20 L 0,20.000000000000004 A 20 20 0 0 1 20 0 L 80,0 L 80,0 L 80,0 A 20 20 0 0 1 100 20 L 100,20 L 100,20 A 20 20 0 0 1 80 40 L 20,40 Z" fill="rgb(255,255,255)" stroke="#f77474" stroke-width="2" stroke-linecap="round" stroke-linejoin="round"/></g><g transform="translate(1608.0649974244463, 1271) rotate(0, 11.935, 9)" width="23.87" height="18"><text text-decoration="none" x="1.4350000000000005" fill="#656565" font-size="10pt" font-family="noto_regular"  y="15">End</text><text text-decoration="none" x="22.435000000000002" fill="#4b4b4b" font-size="10pt" font-family="noto_regular"  y="15"></text></g></g><g id="uVg6iZrhE9d"><g transform="translate(859.9999998389989 1239.9999993970134)"><path d="M 89.99999999999983,0 L 0,59.999999999999886 L 89.99999999999983,119.99999999999977 L 179.99999999999966,59.999999999999886 L 89.99999999999983,0 Z" fill="rgb(255,255,255)" stroke="#BB881A" stroke-width="2" stroke-linecap="round" stroke-linejoin="round"/></g><g transform="translate(902.7049998389988, 1281.994999397013) rotate(0, 47.295, 18.005)" width="94.59" height="36.01"><text text-decoration="none" x="3.7950000000000017" fill="#656565" font-size="10pt" font-family="noto_regular"  y="12">Has&#160;</text><text text-decoration="none" x="29.795" fill="#656565" font-size="10pt" font-family="noto_regular"  y="12">a&#160;</text><text text-decoration="none" x="39.795" fill="#656565" font-size="10pt" font-family="noto_regular"  y="12">key&#160;</text><text text-decoration="none" x="62.795" fill="#656565" font-size="10pt" font-family="noto_regular"  y="12">been</text><text text-decoration="none" x="90.795" fill="#656565" font-size="10pt" font-family="noto_regular"  y="12"></text><text text-decoration="none" x="21.295" fill="#656565" font-size="10pt" font-family="noto_regular"  y="31">pressed?</text><text text-decoration="none" x="73.295" fill="#4b4b4b" font-size="10pt" font-family="noto_regular"  y="31"></text></g></g><g id="wAaWvnVTiZb"><g transform="translate(889.9999992882805 1460)"><rect x="0" y="0" width="120" height="60" fill="rgb(255,255,255)" stroke="#24afaf" stroke-width="2" stroke-linecap="round" stroke-linejoin="round"/></g><g transform="translate(905.9949992882805, 1471.995) rotate(0, 44.005, 18.005)" width="88.01" height="36.01"><text text-decoration="none" x="4.005000000000003" fill="#656565" font-size="10pt" font-family="noto_regular"  y="12">Recognize&#160;</text><text text-decoration="none" x="66.005" fill="#656565" font-size="10pt" font-family="noto_regular"  y="12">the&#160;</text><text text-decoration="none" x="34.005" fill="#656565" font-size="10pt" font-family="noto_regular"  y="31">key</text><text text-decoration="none" x="54.005" fill="#4b4b4b" font-size="10pt" font-family="noto_regular"  y="31"></text></g></g><g id="iJP3h02eTa4"><g transform="translate(710 1600)"><rect x="0" y="0" width="120" height="60" fill="rgb(255,255,255)" stroke="#24afaf" stroke-width="2" stroke-linecap="round" stroke-linejoin="round"/></g><g transform="translate(740.1, 1621) rotate(0, 29.9, 9)" width="59.8" height="18"><text text-decoration="none" x="4.399999999999999" fill="#656565" font-size="10pt" font-family="noto_regular"  y="15">Key&#160;</text><text text-decoration="none" x="28.4" fill="#656565" font-size="10pt" font-family="noto_regular"  y="15">&#x22;left&#x22;</text><text text-decoration="none" x="55.4" fill="#4b4b4b" font-size="10pt" font-family="noto_regular"  y="15"></text></g></g><g id="hbTrWWRw2cu"><g transform="translate(890 1600)"><rect x="0" y="0" width="120" height="60" fill="rgb(255,255,255)" stroke="#24afaf" stroke-width="2" stroke-linecap="round" stroke-linejoin="round"/></g><g transform="translate(915.18, 1621) rotate(0, 34.82, 9)" width="69.64" height="18"><text text-decoration="none" x="6.32" fill="#656565" font-size="10pt" font-family="noto_regular"  y="15">Key&#160;</text><text text-decoration="none" x="30.32" fill="#656565" font-size="10pt" font-family="noto_regular"  y="15">&#x22;right&#x22;</text><text text-decoration="none" x="63.32" fill="#4b4b4b" font-size="10pt" font-family="noto_regular"  y="15"></text></g></g><g id="OkH58aPinuP"><g transform="translate(1070 1600)"><rect x="0" y="0" width="120" height="60" fill="rgb(255,255,255)" stroke="#24afaf" stroke-width="2" stroke-linecap="round" stroke-linejoin="round"/></g><g transform="translate(1092.785, 1621) rotate(0, 37.215, 9)" width="74.43" height="18"><text text-decoration="none" x="5.715000000000003" fill="#656565" font-size="10pt" font-family="noto_regular"  y="15">Key&#160;</text><text text-decoration="none" x="29.715000000000003" fill="#656565" font-size="10pt" font-family="noto_regular"  y="15">&#x22;down&#x22;</text><text text-decoration="none" x="68.715" fill="#4b4b4b" font-size="10pt" font-family="noto_regular"  y="15"></text></g></g><g id="cPv1ARyb9vU"><g transform="translate(710 1740)"><rect x="0" y="0" width="120" height="60" fill="rgb(255,255,255)" stroke="#24afaf" stroke-width="2" stroke-linecap="round" stroke-linejoin="round"/></g><g transform="translate(720.7, 1751.995) rotate(0, 49.3, 18.005)" width="98.6" height="36.01"><text text-decoration="none" x="4.799999999999997" fill="#656565" font-size="10pt" font-family="noto_regular"  y="12">Shape&#160;</text><text text-decoration="none" x="43.8" fill="#656565" font-size="10pt" font-family="noto_regular"  y="12">rotate&#160;</text><text text-decoration="none" x="79.8" fill="#656565" font-size="10pt" font-family="noto_regular"  y="12">90&#160;</text><text text-decoration="none" x="15.299999999999997" fill="#656565" font-size="10pt" font-family="noto_regular"  y="31">degrees&#160;</text><text text-decoration="none" x="64.3" fill="#656565" font-size="10pt" font-family="noto_regular"  y="31">left</text><text text-decoration="none" x="83.3" fill="#4b4b4b" font-size="10pt" font-family="noto_regular"  y="31"></text></g></g><g id="RgeBVE3fePE"><g transform="translate(890 1740)"><rect x="0" y="0" width="120" height="60" fill="rgb(255,255,255)" stroke="#24afaf" stroke-width="2" stroke-linecap="round" stroke-linejoin="round"/></g><g transform="translate(900.7, 1751.995) rotate(0, 49.3, 18.005)" width="98.6" height="36.01"><text text-decoration="none" x="4.799999999999997" fill="#656565" font-size="10pt" font-family="noto_regular"  y="12">Shape&#160;</text><text text-decoration="none" x="43.8" fill="#656565" font-size="10pt" font-family="noto_regular"  y="12">rotate&#160;</text><text text-decoration="none" x="79.8" fill="#656565" font-size="10pt" font-family="noto_regular"  y="12">90&#160;</text><text text-decoration="none" x="12.299999999999997" fill="#656565" font-size="10pt" font-family="noto_regular"  y="31">degrees&#160;</text><text text-decoration="none" x="61.3" fill="#656565" font-size="10pt" font-family="noto_regular"  y="31">right</text><text text-decoration="none" x="86.3" fill="#4b4b4b" font-size="10pt" font-family="noto_regular"  y="31"></text></g></g><g id="vebYF2f85Zd"><g transform="translate(1070 1740)"><rect x="0" y="0" width="120" height="60" fill="rgb(255,255,255)" stroke="#24afaf" stroke-width="2" stroke-linecap="round" stroke-linejoin="round"/></g><g transform="translate(1083.285, 1751.995) rotate(0, 46.715, 18.005)" width="93.43" height="36.01"><text text-decoration="none" x="4.715000000000003" fill="#656565" font-size="10pt" font-family="noto_regular"  y="12">Shape&#160;</text><text text-decoration="none" x="43.715" fill="#656565" font-size="10pt" font-family="noto_regular"  y="12">move&#160;</text><text text-decoration="none" x="77.715" fill="#656565" font-size="10pt" font-family="noto_regular"  y="12">to&#160;</text><text text-decoration="none" x="16.215000000000003" fill="#656565" font-size="10pt" font-family="noto_regular"  y="31">the&#160;</text><text text-decoration="none" x="37.215" fill="#656565" font-size="10pt" font-family="noto_regular"  y="31">bottom</text><text text-decoration="none" x="77.215" fill="#4b4b4b" font-size="10pt" font-family="noto_regular"  y="31"></text></g></g><g id="R5oGsrZ1Bwl"><g transform="translate(860 1880)"><path d="M 89.99999999999983,0 L 0,59.999999999999886 L 89.99999999999983,119.99999999999977 L 179.99999999999966,59.999999999999886 L 89.99999999999983,0 Z" fill="rgb(255,255,255)" stroke="#BB881A" stroke-width="2" stroke-linecap="round" stroke-linejoin="round"/></g><g transform="translate(895.4649999999998, 1921.995) rotate(0, 54.535, 18.005)" width="109.07" height="36.01"><text text-decoration="none" x="5.034999999999997" fill="#656565" font-size="10pt" font-family="noto_regular"  y="12">Has&#160;</text><text text-decoration="none" x="31.034999999999997" fill="#656565" font-size="10pt" font-family="noto_regular"  y="12">the&#160;</text><text text-decoration="none" x="52.035" fill="#656565" font-size="10pt" font-family="noto_regular"  y="12">shape&#160;</text><text text-decoration="none" x="90.035" fill="#656565" font-size="10pt" font-family="noto_regular"  y="12">hit&#160;</text><text text-decoration="none" x="20.034999999999997" fill="#656565" font-size="10pt" font-family="noto_regular"  y="31">bottom,&#160;</text><text text-decoration="none" x="66.035" fill="#656565" font-size="10pt" font-family="noto_regular"  y="31">yet?</text><text text-decoration="none" x="89.035" fill="#4b4b4b" font-size="10pt" font-family="noto_regular"  y="31"></text></g></g><g id="Hhm8QcOJQ9j"><g transform="translate(860 2090)"><path d="M 89.99999999999983,0 L 0,59.999999999999886 L 89.99999999999983,119.99999999999977 L 179.99999999999966,59.999999999999886 L 89.99999999999983,0 Z" fill="rgb(255,255,255)" stroke="#BB881A" stroke-width="2" stroke-linecap="round" stroke-linejoin="round"/></g><g transform="translate(875.9449999999997, 2131.995) rotate(0, 74.055, 18.005)" width="148.11" height="36.01"><text text-decoration="none" x="6.055000000000007" fill="#656565" font-size="10pt" font-family="noto_regular"  y="12">Has&#160;</text><text text-decoration="none" x="32.05500000000001" fill="#656565" font-size="10pt" font-family="noto_regular"  y="12">a&#160;</text><text text-decoration="none" x="42.05500000000001" fill="#656565" font-size="10pt" font-family="noto_regular"  y="12">row&#160;</text><text text-decoration="none" x="66.055" fill="#656565" font-size="10pt" font-family="noto_regular"  y="12">of&#160;</text><text text-decoration="none" x="81.055" fill="#656565" font-size="10pt" font-family="noto_regular"  y="12">cells&#160;</text><text text-decoration="none" x="111.055" fill="#656565" font-size="10pt" font-family="noto_regular"  y="12">being&#160;</text><text text-decoration="none" x="25.055000000000007" fill="#656565" font-size="10pt" font-family="noto_regular"  y="31">filled&#160;</text><text text-decoration="none" x="55.05500000000001" fill="#656565" font-size="10pt" font-family="noto_regular"  y="31">completely?</text><text text-decoration="none" x="123.055" fill="#4b4b4b" font-size="10pt" font-family="noto_regular"  y="31"></text></g></g><g id="6sgCQjII4qK"><g transform="translate(380 1670)"><rect x="0" y="0" width="179.99999999999994" height="59.999999999999986" fill="rgb(255,255,255)" stroke="#24afaf" stroke-width="2" stroke-linecap="round" stroke-linejoin="round"/></g><g transform="translate(397.28, 1681.995) rotate(0, 72.72, 18.005)" width="145.44" height="36.01"><text text-decoration="none" x="8.719999999999999" fill="#656565" font-size="10pt" font-family="noto_regular"  y="12">Clear&#160;</text><text text-decoration="none" x="40.72" fill="#656565" font-size="10pt" font-family="noto_regular"  y="12">the&#160;</text><text text-decoration="none" x="61.72" fill="#656565" font-size="10pt" font-family="noto_regular"  y="12">filled&#160;</text><text text-decoration="none" x="91.72" fill="#656565" font-size="10pt" font-family="noto_regular"  y="12">row&#160;</text><text text-decoration="none" x="115.72" fill="#656565" font-size="10pt" font-family="noto_regular"  y="12">and&#160;</text><text text-decoration="none" x="11.719999999999999" fill="#656565" font-size="10pt" font-family="noto_regular"  y="31">move&#160;</text><text text-decoration="none" x="45.72" fill="#656565" font-size="10pt" font-family="noto_regular"  y="31">every&#160;</text><text text-decoration="none" x="78.72" fill="#656565" font-size="10pt" font-family="noto_regular"  y="31">row&#160;</text><text text-decoration="none" x="102.72" fill="#656565" font-size="10pt" font-family="noto_regular"  y="31">down</text><text text-decoration="none" x="133.72" fill="#4b4b4b" font-size="10pt" font-family="noto_regular"  y="31"></text></g></g><g id="R21gaEPeBde"><g><path d="M 950,360 L 950,430" fill="none" stroke="#7E7E7E" stroke-width="2" stroke-linecap="round" stroke-linejoin="round"/><path d="M 950,430 L 955.75,421.30434782608694 L 944.25,421.30434782608694 Z" fill="rgb(126,126,126)" stroke="#7E7E7E" stroke-width="2" stroke-linecap="round" stroke-linejoin="round"/></g></g><g id="axxaj4v5LOa"><g><path d="M 950,510 L 949.9999999999999,560.0000000000001 L 720,560 L 490,560.0000000000001 L 490,610" fill="none" stroke="#7E7E7E" stroke-width="2" stroke-linecap="round" stroke-linejoin="round"/><path d="M 490,610 L 495.75,601.304347826087 L 484.25,601.304347826087 Z" fill="rgb(126,126,126)" stroke="#7E7E7E" stroke-width="2" stroke-linecap="round" stroke-linejoin="round"/></g></g><g id="Tk3NPwLrfZo"><g><path d="M 950,510 L 949.9999999999999,560.0000000000001 L 795,560 L 640.0000000000001,560.0000000000001 L 640,610" fill="none" stroke="#7E7E7E" stroke-width="2" stroke-linecap="round" stroke-linejoin="round"/><path d="M 640,610 L 645.75,601.304347826087 L 634.25,601.304347826087 Z" fill="rgb(126,126,126)" stroke="#7E7E7E" stroke-width="2" stroke-linecap="round" stroke-linejoin="round"/></g></g><g id="W47vo6nMemF"><g><path d="M 950,510 L 950,610" fill="none" stroke="#7E7E7E" stroke-width="2" stroke-linecap="round" stroke-linejoin="round"/><path d="M 950,610 L 955.75,601.304347826087 L 944.25,601.304347826087 Z" fill="rgb(126,126,126)" stroke="#7E7E7E" stroke-width="2" stroke-linecap="round" stroke-linejoin="round"/></g></g><g id="vHf2yie0nql"><g><path d="M 950,510 L 949.9999999999999,560.0000000000001 L 1025,560 L 1100,560.0000000000001 L 1100,610" fill="none" stroke="#7E7E7E" stroke-width="2" stroke-linecap="round" stroke-linejoin="round"/><path d="M 1100,610 L 1105.75,601.304347826087 L 1094.25,601.304347826087 Z" fill="rgb(126,126,126)" stroke="#7E7E7E" stroke-width="2" stroke-linecap="round" stroke-linejoin="round"/></g></g><g id="CYWqaXISCJO"><g><path d="M 950,510 L 949.9999999999999,560.0000000000001 L 1100,560 L 1250,560.0000000000001 L 1250,610" fill="none" stroke="#7E7E7E" stroke-width="2" stroke-linecap="round" stroke-linejoin="round"/><path d="M 1250,610 L 1255.75,601.304347826087 L 1244.25,601.304347826087 Z" fill="rgb(126,126,126)" stroke="#7E7E7E" stroke-width="2" stroke-linecap="round" stroke-linejoin="round"/></g></g><g id="dp4KMnmgHmB"><g><path d="M 950,510 L 949.9999999999999,560.0000000000001 L 1175,560 L 1400.0000000000005,560.0000000000001 L 1400,610" fill="none" stroke="#7E7E7E" stroke-width="2" stroke-linecap="round" stroke-linejoin="round"/><path d="M 1400,610 L 1405.75,601.304347826087 L 1394.25,601.304347826087 Z" fill="rgb(126,126,126)" stroke="#7E7E7E" stroke-width="2" stroke-linecap="round" stroke-linejoin="round"/></g></g><g id="jTXHw0mtlNk"><g><path d="M 950,510 L 949.9999999999999,560.0000000000001 L 875,560 L 800,560.0000000000001 L 800,610" fill="none" stroke="#7E7E7E" stroke-width="2" stroke-linecap="round" stroke-linejoin="round"/><path d="M 800,610 L 805.75,601.304347826087 L 794.25,601.304347826087 Z" fill="rgb(126,126,126)" stroke="#7E7E7E" stroke-width="2" stroke-linecap="round" stroke-linejoin="round"/></g></g><g id="6bKgPF2u0jL"><g><path d="M 490,670 L 490,710 L 720,710 L 950,710 L 950,750" fill="none" stroke="#7E7E7E" stroke-width="2" stroke-linecap="round" stroke-linejoin="round"/><path d="M 950,750 L 955.75,741.304347826087 L 944.25,741.304347826087 Z" fill="rgb(126,126,126)" stroke="#7E7E7E" stroke-width="2" stroke-linecap="round" stroke-linejoin="round"/></g></g><g id="6wcW77kVT5w"><g><path d="M 640,670 L 640.0000000000001,710.0000000000002 L 795,710 L 949.9999999999999,710.0000000000002 L 950,750" fill="none" stroke="#7E7E7E" stroke-width="2" stroke-linecap="round" stroke-linejoin="round"/><path d="M 950,750 L 955.75,741.304347826087 L 944.25,741.304347826087 Z" fill="rgb(126,126,126)" stroke="#7E7E7E" stroke-width="2" stroke-linecap="round" stroke-linejoin="round"/></g></g><g id="rL19AvrTLuj"><g><path d="M 800,670 L 800,710.0000000000002 L 875,710 L 949.9999999999999,710.0000000000002 L 950,750" fill="none" stroke="#7E7E7E" stroke-width="2" stroke-linecap="round" stroke-linejoin="round"/><path d="M 950,750 L 955.75,741.304347826087 L 944.25,741.304347826087 Z" fill="rgb(126,126,126)" stroke="#7E7E7E" stroke-width="2" stroke-linecap="round" stroke-linejoin="round"/></g></g><g id="q2D6Y2KvrjQ"><g><path d="M 950,670 L 950,750" fill="none" stroke="#7E7E7E" stroke-width="2" stroke-linecap="round" stroke-linejoin="round"/></g></g><g id="WfSARxMYl0c"><g><path d="M 1100,670 L 1100,710.0000000000002 L 1025,710 L 949.9999999999999,710.0000000000002 L 950,750" fill="none" stroke="#7E7E7E" stroke-width="2" stroke-linecap="round" stroke-linejoin="round"/><path d="M 950,750 L 955.75,741.304347826087 L 944.25,741.304347826087 Z" fill="rgb(126,126,126)" stroke="#7E7E7E" stroke-width="2" stroke-linecap="round" stroke-linejoin="round"/></g></g><g id="Wmr2uQOsL7K"><g><path d="M 1250,670 L 1250,710.0000000000002 L 1100,710 L 949.9999999999999,710.0000000000002 L 950,750" fill="none" stroke="#7E7E7E" stroke-width="2" stroke-linecap="round" stroke-linejoin="round"/><path d="M 950,750 L 955.75,741.304347826087 L 944.25,741.304347826087 Z" fill="rgb(126,126,126)" stroke="#7E7E7E" stroke-width="2" stroke-linecap="round" stroke-linejoin="round"/></g></g><g id="KqACJ2pqx9n"><g><path d="M 1400,670 L 1400.0000000000005,710.0000000000002 L 1175,710 L 949.9999999999999,710.0000000000002 L 950,750" fill="none" stroke="#7E7E7E" stroke-width="2" stroke-linecap="round" stroke-linejoin="round"/><path d="M 950,750 L 955.75,741.304347826087 L 944.25,741.304347826087 Z" fill="rgb(126,126,126)" stroke="#7E7E7E" stroke-width="2" stroke-linecap="round" stroke-linejoin="round"/></g></g><g id="amlVEv1Irym"><g><path d="M 950,830 L 949.9999999999999,855 Q 949.9999999999999,855.0000000000001 950,865 Q 950,875 950,875 L 950,900" fill="none" stroke="#7E7E7E" stroke-width="2" stroke-linecap="round" stroke-linejoin="round"/><path d="M 950,900 L 955.75,891.304347826087 L 944.25,891.304347826087 Z" fill="rgb(126,126,126)" stroke="#7E7E7E" stroke-width="2" stroke-linecap="round" stroke-linejoin="round"/></g></g><g id="H2AV2bosFTc"><g><path d="M 950,1020 L 950,1055 Q 950.0000000000001,1065 950.0000000000001,1065.0000003999714 L 950,1090" fill="none" stroke="#7E7E7E" stroke-width="2" stroke-linecap="round" stroke-linejoin="round"/><path d="M 950,1090 L 955.75,1081.304347826087 L 944.25,1081.304347826087 Z" fill="rgb(126,126,126)" stroke="#7E7E7E" stroke-width="2" stroke-linecap="round" stroke-linejoin="round"/></g></g><g id="9jtiEckNCIe"><g><path d="M 1010,1120 L 1090,1120" fill="none" stroke="#7E7E7E" stroke-width="2" stroke-linecap="round" stroke-linejoin="round"/><path d="M 1090,1120 L 1081.304347826087,1114.25 L 1081.304347826087,1125.75 Z" fill="rgb(126,126,126)" stroke="#7E7E7E" stroke-width="2" stroke-linecap="round" stroke-linejoin="round"/></g></g><g id="piceusGyrwV"><mask id="6de1e" x="1026" y="1166" width="168" height="148" maskUnits="userSpaceOnUse"><rect x="1026" y="1166" width="168" height="148" fill="white" /><rect x="1157.9" y="1288" width="24.2" height="24" fill="black" /></mask><g mask="url(#6de1e)"><path d="M 1180,1180 L 1180,1300 L 1040,1300" fill="none" stroke="#7E7E7E" stroke-width="2" stroke-linecap="round" stroke-linejoin="round"/><path d="M 1040,1300 L 1048.695652173913,1305.75 L 1048.695652173913,1294.25 Z" fill="rgb(126,126,126)" stroke="#7E7E7E" stroke-width="2" stroke-linecap="round" stroke-linejoin="round"/></g><g transform="translate(1160.9, 1291)" width="18.2" height="18"><text text-decoration="none" x="1.0999999999999996" fill="#4b4b4b" font-size="10pt" font-family="noto_regular"  y="15">No</text><text text-decoration="none" x="17.1" fill="#4b4b4b" font-size="10pt" font-family="noto_regular"  y="15"></text></g></g><g id="0GBIbCUMCra"><mask id="2999a" x="1256" y="1106" width="118" height="28" maskUnits="userSpaceOnUse"><rect x="1256" y="1106" width="118" height="28" fill="white" /><rect x="1301.27" y="1108.0000003999714" width="27.46" height="24" fill="black" /></mask><g mask="url(#2999a)"><path d="M 1270,1120 L 1304.9999999999998,1120.000000622178 Q 1305.000000799943,1120.000000622178 1315,1120 Q 1324.9999999999995,1120 1324.9999999999998,1120 L 1360,1120" fill="none" stroke="#7E7E7E" stroke-width="2" stroke-linecap="round" stroke-linejoin="round"/><path d="M 1360,1120 L 1351.304347826087,1114.25 L 1351.304347826087,1125.75 Z" fill="rgb(126,126,126)" stroke="#7E7E7E" stroke-width="2" stroke-linecap="round" stroke-linejoin="round"/></g><g transform="translate(1304.27, 1111.0000003999714)" width="21.46" height="18"><text text-decoration="none" x="0" fill="#4b4b4b" font-size="10pt" font-family="noto_regular"  y="15">Yes</text><text text-decoration="none" x="22" fill="#4b4b4b" font-size="10pt" font-family="noto_regular"  y="15"></text></g></g><g id="8RL2d7GMkjC"><g><path d="M 1480,1120 L 1495,1120 Q 1495,1120 1505,1120 Q 1514.9999992000567,1120.000000479966 1515,1120.000000479966 L 1530,1120" fill="none" stroke="#7E7E7E" stroke-width="2" stroke-linecap="round" stroke-linejoin="round"/><path d="M 1530,1120 L 1521.304347826087,1114.25 L 1521.304347826087,1125.75 Z" fill="rgb(126,126,126)" stroke="#7E7E7E" stroke-width="2" stroke-linecap="round" stroke-linejoin="round"/></g></g><g id="htCDuaAVSOH"><mask id="d3370" x="986" y="326" width="648" height="748" maskUnits="userSpaceOnUse"><rect x="986" y="326" width="648" height="748" fill="white" /><rect x="1606.27" y="378" width="27.46" height="24" fill="black" /></mask><g mask="url(#d3370)"><path d="M 1620,1060 L 1620,340 L 1000,340" fill="none" stroke="#7E7E7E" stroke-width="2" stroke-linecap="round" stroke-linejoin="round"/><path d="M 1000,340 L 1008.695652173913,345.75 L 1008.695652173913,334.25 Z" fill="rgb(126,126,126)" stroke="#7E7E7E" stroke-width="2" stroke-linecap="round" stroke-linejoin="round"/></g><g transform="translate(1609.27, 381)" width="21.46" height="18"><text text-decoration="none" x="0" fill="#4b4b4b" font-size="10pt" font-family="noto_regular"  y="15">Yes</text><text text-decoration="none" x="22" fill="#4b4b4b" font-size="10pt" font-family="noto_regular"  y="15"></text></g></g><g id="Za4sSrGO05D"><g><path d="M 1620,1180 L 1619.9999999999998,1210.0000003999717 Q 1619.9999999999998,1210.0000007999433 1620,1220 Q 1619.9999980683344,1229.999997793546 1619.9999980683347,1230.0000003999717 L 1620,1260" fill="none" stroke="#7E7E7E" stroke-width="2" stroke-linecap="round" stroke-linejoin="round"/><path d="M 1620,1260 L 1625.75,1251.304347826087 L 1614.25,1251.304347826087 Z" fill="rgb(126,126,126)" stroke="#7E7E7E" stroke-width="2" stroke-linecap="round" stroke-linejoin="round"/></g></g><g id="F7S5CRXto4l"><mask id="5875a" x="826" y="1056" width="138" height="258" maskUnits="userSpaceOnUse"><rect x="826" y="1056" width="138" height="258" fill="white" /><rect x="827.9" y="1117.7281042890584" width="24.2" height="24" fill="black" /></mask><g mask="url(#5875a)"><path d="M 860,1300 L 840,1300 L 840,1186 L 840,1071 L 895,1071 L 949.4480177615551,1071 L 949,1071 L 949.4480177615551,1070 L 950,1070 L 950,1070 L 950,1090" fill="none" stroke="#7E7E7E" stroke-width="2" stroke-linecap="round" stroke-linejoin="round"/><path d="M 950,1090 L 955.75,1081.304347826087 L 944.25,1081.304347826087 Z" fill="rgb(126,126,126)" stroke="#7E7E7E" stroke-width="2" stroke-linecap="round" stroke-linejoin="round"/></g><g transform="translate(830.9, 1120.7281042890584)" width="18.2" height="18"><text text-decoration="none" x="1.0999999999999996" fill="#4b4b4b" font-size="10pt" font-family="noto_regular"  y="15">No</text><text text-decoration="none" x="17.1" fill="#4b4b4b" font-size="10pt" font-family="noto_regular"  y="15"></text></g></g><g id="lkOWM7aNLyN"><mask id="950c0" x="936" y="1346" width="28" height="128" maskUnits="userSpaceOnUse"><rect x="936" y="1346" width="28" height="128" fill="white" /><rect x="936.269999523886" y="1397.999999798312" width="27.46" height="24" fill="black" /></mask><g mask="url(#950c0)"><path d="M 950,1360 L 949.999999871199,1399.9999996985066 Q 949.999999871199,1400.0000000402956 950,1410 Q 949.9999994306244,1419.9999989255623 949.9999994306244,1419.9999996985066 L 950,1460" fill="none" stroke="#7E7E7E" stroke-width="2" stroke-linecap="round" stroke-linejoin="round"/><path d="M 950,1460 L 955.75,1451.304347826087 L 944.25,1451.304347826087 Z" fill="rgb(126,126,126)" stroke="#7E7E7E" stroke-width="2" stroke-linecap="round" stroke-linejoin="round"/></g><g transform="translate(939.269999523886, 1400.999999798312)" width="21.46" height="18"><text text-decoration="none" x="0" fill="#4b4b4b" font-size="10pt" font-family="noto_regular"  y="15">Yes</text><text text-decoration="none" x="22" fill="#4b4b4b" font-size="10pt" font-family="noto_regular"  y="15"></text></g></g><g id="IrE17o8INex"><g><path d="M 770,1600 L 770,1490 L 890,1490" fill="none" stroke="#7E7E7E" stroke-width="2" stroke-linecap="round" stroke-linejoin="round"/><path d="M 770,1600 L 775.75,1591.304347826087 L 764.25,1591.304347826087 Z" fill="rgb(126,126,126)" stroke="#7E7E7E" stroke-width="2" stroke-linecap="round" stroke-linejoin="round"/></g></g><g id="xjMDJ8I1H2k"><g><path d="M 950,1520 L 949.9999994662104,1550 Q 949.9999994662104,1550.0000007117196 950,1560 Q 950,1570 950,1570 L 950,1600" fill="none" stroke="#7E7E7E" stroke-width="2" stroke-linecap="round" stroke-linejoin="round"/><path d="M 950,1600 L 955.75,1591.304347826087 L 944.25,1591.304347826087 Z" fill="rgb(126,126,126)" stroke="#7E7E7E" stroke-width="2" stroke-linecap="round" stroke-linejoin="round"/></g></g><g id="adPK6v1n32V"><g><path d="M 1010,1490 L 1130,1490 L 1130,1600" fill="none" stroke="#7E7E7E" stroke-width="2" stroke-linecap="round" stroke-linejoin="round"/><path d="M 1130,1600 L 1135.75,1591.304347826087 L 1124.25,1591.304347826087 Z" fill="rgb(126,126,126)" stroke="#7E7E7E" stroke-width="2" stroke-linecap="round" stroke-linejoin="round"/></g></g><g id="xMAxBiXXeFh"><g><path d="M 770,1660 L 770,1740" fill="none" stroke="#7E7E7E" stroke-width="2" stroke-linecap="round" stroke-linejoin="round"/><path d="M 770,1740 L 775.75,1731.304347826087 L 764.25,1731.304347826087 Z" fill="rgb(126,126,126)" stroke="#7E7E7E" stroke-width="2" stroke-linecap="round" stroke-linejoin="round"/></g></g><g id="G0CRLAXMm4w"><g><path d="M 950,1660 L 950,1740" fill="none" stroke="#7E7E7E" stroke-width="2" stroke-linecap="round" stroke-linejoin="round"/><path d="M 950,1740 L 955.75,1731.304347826087 L 944.25,1731.304347826087 Z" fill="rgb(126,126,126)" stroke="#7E7E7E" stroke-width="2" stroke-linecap="round" stroke-linejoin="round"/></g></g><g id="ttWm5LOdi0p"><g><path d="M 1130,1660 L 1130,1740" fill="none" stroke="#7E7E7E" stroke-width="2" stroke-linecap="round" stroke-linejoin="round"/><path d="M 1130,1740 L 1135.75,1731.304347826087 L 1124.25,1731.304347826087 Z" fill="rgb(126,126,126)" stroke="#7E7E7E" stroke-width="2" stroke-linecap="round" stroke-linejoin="round"/></g></g><g id="FwiVhUhAOwb"><g><path d="M 770,1800 L 770,1840 L 860,1840 L 949.9999999999998,1840 L 950,1880" fill="none" stroke="#7E7E7E" stroke-width="2" stroke-linecap="round" stroke-linejoin="round"/><path d="M 950,1880 L 955.75,1871.304347826087 L 944.25,1871.304347826087 Z" fill="rgb(126,126,126)" stroke="#7E7E7E" stroke-width="2" stroke-linecap="round" stroke-linejoin="round"/></g></g><g id="Rt9o35Cvsjw"><g><path d="M 950,1800 L 950,1830 Q 950,1830 950,1840 Q 949.9999999999998,1849.9999999999998 949.9999999999998,1850 L 950,1880" fill="none" stroke="#7E7E7E" stroke-width="2" stroke-linecap="round" stroke-linejoin="round"/></g></g><g id="9x8lridyJMT"><g><path d="M 1130,1800 L 1130,1840 L 1040,1840 L 949.9999999999998,1840 L 950,1880" fill="none" stroke="#7E7E7E" stroke-width="2" stroke-linecap="round" stroke-linejoin="round"/><path d="M 950,1880 L 955.75,1871.304347826087 L 944.25,1871.304347826087 Z" fill="rgb(126,126,126)" stroke="#7E7E7E" stroke-width="2" stroke-linecap="round" stroke-linejoin="round"/></g></g><g id="xVQ9SwvROHJ"><mask id="b06fb" x="662" y="1056" width="302" height="899" maskUnits="userSpaceOnUse"><rect x="662" y="1056" width="302" height="899" fill="white" /><rect x="663.9" y="1438.5112341428735" width="24.2" height="24" fill="black" /></mask><g mask="url(#b06fb)"><path d="M 860,1940 L 840,1940 L 840,1940 L 840,1940.5097687493876 L 758,1941 L 676,1940.5097687493876 L 676,1505 L 676,1070 L 813,1070 L 950,1070 L 950,1090" fill="none" stroke="#7E7E7E" stroke-width="2" stroke-linecap="round" stroke-linejoin="round"/></g><g transform="translate(666.9, 1441.5112341428735)" width="18.2" height="18"><text text-decoration="none" x="1.0999999999999996" fill="#4b4b4b" font-size="10pt" font-family="noto_regular"  y="15">No</text><text text-decoration="none" x="17.1" fill="#4b4b4b" font-size="10pt" font-family="noto_regular"  y="15"></text></g></g><g id="QB0z7TwR9gS"><mask id="d0ccb" x="936" y="1986" width="28" height="118" maskUnits="userSpaceOnUse"><rect x="936" y="1986" width="28" height="118" fill="white" /><rect x="936.27" y="2033" width="27.46" height="24" fill="black" /></mask><g mask="url(#d0ccb)"><path d="M 950,2000 L 950,2090" fill="none" stroke="#7E7E7E" stroke-width="2" stroke-linecap="round" stroke-linejoin="round"/><path d="M 950,2090 L 955.75,2081.304347826087 L 944.25,2081.304347826087 Z" fill="rgb(126,126,126)" stroke="#7E7E7E" stroke-width="2" stroke-linecap="round" stroke-linejoin="round"/></g><g transform="translate(939.27, 2036)" width="21.46" height="18"><text text-decoration="none" x="0" fill="#4b4b4b" font-size="10pt" font-family="noto_regular"  y="15">Yes</text><text text-decoration="none" x="22" fill="#4b4b4b" font-size="10pt" font-family="noto_regular"  y="15"></text></g></g><g id="kXI4sKdObR2"><mask id="fdf00" x="587" y="886" width="377" height="1278" maskUnits="userSpaceOnUse"><rect x="587" y="886" width="377" height="1278" fill="white" /><rect x="588.9003460686118" y="1468" width="24.2" height="24" fill="black" /></mask><g mask="url(#fdf00)"><path d="M 860,2150 L 601,2150 L 601,1815 L 601,1480 L 601,1480 L 601.4480177615551,1480 L 601,1190 L 601.4480177615551,900 L 950,900" fill="none" stroke="#7E7E7E" stroke-width="2" stroke-linecap="round" stroke-linejoin="round"/><path d="M 950,900 L 941.304347826087,894.25 L 941.304347826087,905.75 Z" fill="rgb(126,126,126)" stroke="#7E7E7E" stroke-width="2" stroke-linecap="round" stroke-linejoin="round"/></g><g transform="translate(591.9003460686118, 1471)" width="18.2" height="18"><text text-decoration="none" x="1.0999999999999996" fill="#4b4b4b" font-size="10pt" font-family="noto_regular"  y="15">No</text><text text-decoration="none" x="17.1" fill="#4b4b4b" font-size="10pt" font-family="noto_regular"  y="15"></text></g></g><g id="Nu05rpQqt8N"><mask id="abb4e" x="455" y="1716" width="509" height="508" maskUnits="userSpaceOnUse"><rect x="455" y="1716" width="509" height="508" fill="white" /><rect x="455.2700001983968" y="2198.009768749379" width="27.46" height="24" fill="black" /></mask><g mask="url(#abb4e)"><path d="M 950,2210 L 950,2210.009768749387 L 710,2210 L 469,2210.009768749387 L 469,1980 L 469,1750 L 470,1750 L 470,1750 L 470,1730" fill="none" stroke="#7E7E7E" stroke-width="2" stroke-linecap="round" stroke-linejoin="round"/><path d="M 470,1730 L 464.25,1738.695652173913 L 475.75,1738.695652173913 Z" fill="rgb(126,126,126)" stroke="#7E7E7E" stroke-width="2" stroke-linecap="round" stroke-linejoin="round"/></g><g transform="translate(458.2700001983968, 2201.009768749379)" width="21.46" height="18"><text text-decoration="none" x="0" fill="#4b4b4b" font-size="10pt" font-family="noto_regular"  y="15">Yes</text><text text-decoration="none" x="22" fill="#4b4b4b" font-size="10pt" font-family="noto_regular"  y="15"></text></g></g><g id="zFNsIEFk4aI"><g><path d="M 470,1670 L 470,1650 L 470,1650 L 469.4480177615551,1650 L 469,1265 L 469.4480177615551,880 L 710,880 L 950,880 L 950,900" fill="none" stroke="#7E7E7E" stroke-width="2" stroke-linecap="round" stroke-linejoin="round"/><path d="M 950,900 L 955.75,891.304347826087 L 944.25,891.304347826087 Z" fill="rgb(126,126,126)" stroke="#7E7E7E" stroke-width="2" stroke-linecap="round" stroke-linejoin="round"/></g></g></svg>